<?xml version="1.0" encoding="utf-8"?>
<!-- Generator: Adobe Illustrator 16.0.0, SVG Export Plug-In . SVG Version: 6.00 Build 0)  -->
<!DOCTYPE svg PUBLIC "-//W3C//DTD SVG 1.1//EN" "http://www.w3.org/Graphics/SVG/1.1/DTD/svg11.dtd">
<svg version="1.1" id="Layer_1" xmlns="http://www.w3.org/2000/svg" xmlns:xlink="http://www.w3.org/1999/xlink" x="0px" y="0px"
	 width="64px" height="64px" viewBox="0 0 64 64" enable-background="new 0 0 64 64" xml:space="preserve">
<g>
	<path fill="#FFFFFF" d="M712.337,60c0,0-1,156-156,156"/>
	<g>
		<g>
			<path fill="none" stroke="#D63B2B" stroke-width="6" stroke-miterlimit="10" d="M558.774,214.055c0,0,0.936-0.015,2.688-0.042
				c1.754,0.007,4.317-0.151,7.583-0.302c6.519-0.407,15.844-1.23,26.802-3.487c10.916-2.339,23.513-6.087,35.941-12.442
				c12.456-6.255,24.592-15.17,34.84-25.943c5.1-5.406,9.777-11.215,13.898-17.273c4.102-6.069,7.742-12.319,10.809-18.6
				c6.196-12.539,10.346-25.008,13.115-35.855c2.775-10.86,4.196-20.119,4.957-26.602c0.381-3.244,0.599-5.799,0.727-7.54
				c0.113-1.74,0.172-2.667,0.172-2.667"/>
			<path fill="none" stroke="#D63B2B" stroke-width="6" stroke-miterlimit="10" d="M619.577,228.707
				c0.001,0-4.052-5.025-7.771-10.161c-1.866-2.552-3.673-5.158-5.005-7.143c-1.313-1.978-2.189-3.297-2.189-3.297
				s0.139-1.33,0.347-3.326c0.198-1.981,0.421-4.644,0.575-7.32c0.334-5.336,0.391-10.58,0.391-10.58"/>
			<path fill="none" stroke="#D63B2B" stroke-width="6" stroke-miterlimit="10" d="M602.439,233.337
				c0.001-0.001-3.493-5.343-6.69-10.874c-3.226-5.496-6.146-11.05-6.146-11.05s1.1-5.297,1.947-10.545
				c0.881-5.227,1.468-10.511,1.469-10.511"/>
			<path fill="none" stroke="#D63B2B" stroke-width="6" stroke-miterlimit="10" d="M585.172,236.311c0,0-2.973-5.692-5.668-11.421
				c-1.355-2.851-2.657-5.749-3.611-7.935c-0.939-2.18-1.566-3.634-1.566-3.634s0.375-1.285,0.939-3.212
				c0.553-1.92,1.264-4.49,1.92-7.097c1.33-5.19,2.43-10.349,2.43-10.35"/>
			<path fill="none" stroke="#D63B2B" stroke-width="6" stroke-miterlimit="10" d="M567.948,237.792c0,0-2.49-5.869-4.729-11.807
				c-2.262-5.963-4.287-11.933-4.287-11.933s1.918-5.032,3.641-10.058c1.739-5.055,3.262-10.152,3.262-10.153"/>
			<path fill="none" stroke="#D63B2B" stroke-width="6" stroke-miterlimit="10" d="M681.323,191.123c0,0-1.459-0.659-3.646-1.647
				c-2.176-1.003-5.08-2.411-7.91-3.86c-5.666-2.868-11.113-6.098-11.113-6.098c0,0-1.822-5.031-3.97-9.917
				c-1.06-2.444-2.153-4.823-3.02-6.613c-0.878-1.78-1.464-2.966-1.464-2.966"/>
			<path fill="none" stroke="#D63B2B" stroke-width="6" stroke-miterlimit="10" d="M667.724,203.216c0,0-5.575-3.3-10.826-6.856
				c-2.626-1.757-5.231-3.625-7.142-5.031c-1.897-1.421-3.162-2.368-3.162-2.368s-0.318-1.301-0.797-3.253
				c-0.494-1.945-1.17-4.494-1.945-7.062c-1.518-5.125-3.305-10.034-3.304-10.035"/>
			<path fill="none" stroke="#D63B2B" stroke-width="6" stroke-miterlimit="10" d="M652.739,213.571c0,0-5.127-3.943-9.907-8.097
				c-4.838-4.177-9.345-8.586-9.346-8.586c0,0-0.584-5.346-1.48-10.565c-0.894-5.278-2.073-10.378-2.073-10.379"/>
			<path fill="none" stroke="#D63B2B" stroke-width="6" stroke-miterlimit="10" d="M636.702,222.039c0,0-4.614-4.522-8.879-9.205
				c-2.14-2.331-4.236-4.763-5.767-6.568c-1.517-1.821-2.527-3.035-2.527-3.035s-0.008-1.34-0.02-3.351
				c-0.029-2.014-0.085-4.645-0.229-7.319c-0.27-5.347-0.83-10.558-0.83-10.558"/>
			<path fill="none" stroke="#D63B2B" stroke-width="6" stroke-miterlimit="10" d="M719.662,131.145c0,0-1.599-0.038-3.997-0.095
				c-2.398-0.071-5.584-0.2-8.747-0.383c-6.363-0.36-12.628-1.003-12.628-1.003s-3.785-3.836-7.684-7.449
				c-1.961-1.82-3.939-3.596-5.43-4.906c-1.5-1.302-2.5-2.169-2.5-2.169"/>
			<path fill="none" stroke="#D63B2B" stroke-width="6" stroke-miterlimit="10" d="M712.569,147.174c0,0-1.59-0.175-3.974-0.438
				c-2.388-0.281-5.556-0.691-8.692-1.159c-3.129-0.459-6.279-1.001-8.609-1.426c-2.326-0.441-3.877-0.735-3.877-0.735
				s-0.858-1.032-2.146-2.579c-1.297-1.539-3.022-3.546-4.82-5.535c-1.787-1.986-3.598-3.923-4.967-5.354
				c-1.383-1.425-2.306-2.375-2.306-2.375"/>
			<path fill="none" stroke="#D63B2B" stroke-width="6" stroke-miterlimit="10" d="M703.909,162.635c0,0-6.281-1.234-12.465-2.816
				c-6.164-1.53-12.205-3.411-12.205-3.41c-0.001,0-2.938-4.481-6.117-8.768c-3.127-4.285-6.49-8.381-6.49-8.381"/>
			<path fill="none" stroke="#D63B2B" stroke-width="6" stroke-miterlimit="10" d="M693.606,177.294c0,0-6.167-1.905-12.104-4.116
				c-6.009-2.217-11.766-4.731-11.766-4.731s-2.455-4.812-5.118-9.375c-2.687-4.627-5.574-9.01-5.574-9.01"/>
			<path fill="none" stroke="#D63B2B" stroke-width="6" stroke-miterlimit="10" d="M734.341,63.162c0,0-1.523,0.545-3.817,1.27
				c-2.292,0.733-5.355,1.638-8.426,2.469c-6.14,1.678-12.303,3.026-12.303,3.026s-4.783-2.459-9.638-4.645
				c-2.425-1.099-4.865-2.136-6.704-2.867c-1.836-0.738-3.07-1.175-3.07-1.175"/>
			<path fill="none" stroke="#D63B2B" stroke-width="6" stroke-miterlimit="10" d="M732.68,80.702c0,0-6.247,1.373-12.494,2.479
				c-6.258,1.131-12.509,2.004-12.508,2.004c0,0-1.146-0.695-2.865-1.738c-1.729-1.035-4.039-2.388-6.357-3.7
				c-4.648-2.639-9.361-5.063-9.361-5.064"/>
			<path fill="none" stroke="#D63B2B" stroke-width="6" stroke-miterlimit="10" d="M729.685,97.655c0,0-6.335,0.892-12.65,1.528
				c-6.318,0.662-12.621,1.062-12.62,1.063c0,0-1.091-0.779-2.726-1.947c-1.645-1.16-3.853-2.684-6.066-4.166
				c-4.437-2.978-8.948-5.756-8.948-5.757"/>
			<path fill="none" stroke="#D63B2B" stroke-width="6" stroke-miterlimit="10" d="M725.409,114.354c0,0-1.592,0.092-3.979,0.231
				c-2.393,0.125-5.582,0.257-8.752,0.339c-3.164,0.087-6.348,0.112-8.718,0.109c-2.368-0.016-3.946-0.026-3.946-0.026
				s-1.029-0.863-2.572-2.157c-1.549-1.284-3.612-2.965-5.723-4.615c-2.103-1.65-4.215-3.257-5.811-4.443
				c-1.607-1.181-2.678-1.967-2.678-1.967"/>
		</g>
	</g>
</g>
<line fill="none" stroke="#D63B2B" stroke-width="6" stroke-miterlimit="10" x1="860.098" y1="399.61" x2="564.577" y2="399.61"/>
<polyline fill="none" stroke="#D63B2B" stroke-width="6" stroke-miterlimit="10" points="791.098,375.61 801.098,399.61 
	791.098,419.61 "/>
<polyline fill="none" stroke="#D63B2B" stroke-width="6" stroke-miterlimit="10" points="810.698,375.61 820.698,399.61 
	810.698,419.61 "/>
<polyline fill="none" stroke="#D63B2B" stroke-width="6" stroke-miterlimit="10" points="830.298,375.61 840.298,399.61 
	830.298,419.61 "/>
<polyline fill="none" stroke="#D63B2B" stroke-width="6" stroke-miterlimit="10" points="849.898,375.61 859.898,399.61 
	849.898,419.61 "/>
<polyline fill="none" stroke="#D63B2B" stroke-width="6" stroke-miterlimit="10" points="712.257,375.61 722.257,399.61 
	712.257,419.61 "/>
<polyline fill="none" stroke="#D63B2B" stroke-width="6" stroke-miterlimit="10" points="731.858,375.61 741.858,399.61 
	731.858,419.61 "/>
<polyline fill="none" stroke="#D63B2B" stroke-width="6" stroke-miterlimit="10" points="751.458,375.61 761.458,399.61 
	751.458,419.61 "/>
<polyline fill="none" stroke="#D63B2B" stroke-width="6" stroke-miterlimit="10" points="771.058,375.61 781.058,399.61 
	771.058,419.61 "/>
<polyline fill="none" stroke="#D63B2B" stroke-width="6" stroke-miterlimit="10" points="633.417,375.61 643.417,399.61 
	633.417,419.61 "/>
<polyline fill="none" stroke="#D63B2B" stroke-width="6" stroke-miterlimit="10" points="653.018,375.61 663.018,399.61 
	653.018,419.61 "/>
<polyline fill="none" stroke="#D63B2B" stroke-width="6" stroke-miterlimit="10" points="672.618,375.61 682.618,399.61 
	672.618,419.61 "/>
<polyline fill="none" stroke="#D63B2B" stroke-width="6" stroke-miterlimit="10" points="692.217,375.61 702.217,399.61 
	692.217,419.61 "/>
<polyline fill="none" stroke="#D63B2B" stroke-width="6" stroke-miterlimit="10" points="554.577,375.61 564.577,399.61 
	554.577,419.61 "/>
<polyline fill="none" stroke="#D63B2B" stroke-width="6" stroke-miterlimit="10" points="574.178,375.61 584.178,399.61 
	574.178,419.61 "/>
<polyline fill="none" stroke="#D63B2B" stroke-width="6" stroke-miterlimit="10" points="593.778,375.61 603.778,399.61 
	593.778,419.61 "/>
<polyline fill="none" stroke="#D63B2B" stroke-width="6" stroke-miterlimit="10" points="613.377,375.61 623.377,399.61 
	613.377,419.61 "/>
<g>
	<path d="M-42.315,2.425C-43.717,3.866-44.583,5.831-44.583,8c0,2.18,0.875,4.154,2.289,5.597
		C-39.905,9.083-41.201,4.772-42.315,2.425z"/>
	<path d="M-36.583,0c-1.516,0-2.928,0.429-4.136,1.162c1.351,2.683,3.186,8.08,0.023,13.69C-39.494,15.576-38.09,16-36.583,16"/>
</g>
<g>
	<path d="M-30.852,2.425C-29.45,3.866-28.583,5.831-28.583,8c0,2.18-0.875,4.154-2.289,5.597
		C-33.262,9.083-31.966,4.772-30.852,2.425z"/>
	<path d="M-36.583,0c1.516,0,2.928,0.429,4.136,1.162c-1.351,2.683-3.186,8.08-0.023,13.69C-33.673,15.576-35.077,16-36.583,16"/>
</g>
<circle cx="32.083" cy="31.917" r="31.917"/>
</svg>
