<?xml version="1.0" encoding="utf-8"?>
<!-- Generator: Adobe Illustrator 16.0.0, SVG Export Plug-In . SVG Version: 6.00 Build 0)  -->
<!DOCTYPE svg PUBLIC "-//W3C//DTD SVG 1.1//EN" "http://www.w3.org/Graphics/SVG/1.1/DTD/svg11.dtd">
<svg version="1.1" id="Layer_1" xmlns="http://www.w3.org/2000/svg" xmlns:xlink="http://www.w3.org/1999/xlink" x="0px" y="0px"
	 width="16px" height="16px" viewBox="0 0 16 16" enable-background="new 0 0 16 16" xml:space="preserve">
<g>
	<g>
		<path fill="#231F20" d="M3.225,6.763v0.378h0.023C3.928,6.732,4.631,6.7,5.051,6.7c1.133,0,1.519,0.323,1.667,0.442
			C6.978,6.991,7.544,6.7,8.507,6.7c1.928,0,1.928,0.76,1.928,1.068v1.791H8.882V7.963c0-0.33,0-0.697-0.828-0.697
			c-0.408,0-0.828,0.124-0.975,0.307C6.943,7.73,6.887,7.87,6.887,8.215v1.343H5.334V8.026c0-0.475,0.011-0.76-0.805-0.76
			c-0.408,0-0.828,0.108-0.986,0.27C3.418,7.66,3.338,7.789,3.338,8.2v1.358H1.786V6.763H3.225z"/>
		<path fill="#231F20" d="M14.18,7.382h-1.127v1.12c0,0.396,0,0.525,0.461,0.525c0.219,0,0.412-0.025,0.617-0.064l0.049-0.005
			l0.145,0.569c-0.544,0.101-1.139,0.112-1.308,0.112c-0.509,0-1.163-0.076-1.405-0.284c-0.206-0.172-0.23-0.338-0.23-0.761V7.382
			h-0.764V6.798h0.764V6.246l1.672-0.434v0.986h1.127V7.382z"/>
		<path fill="#231F20" d="M1.027,11.14C0.409,10.208,0,9.102,0,7.987c0-1.315,0.517-2.388,1.04-3.141h0.624
			C1.201,5.873,0.885,6.745,0.885,8.014c0,1.455,0.516,2.576,0.751,3.086c0.007,0.007,0.021,0.033,0.021,0.04H1.027z"/>
		<path fill="#231F20" d="M14.973,4.86C15.59,5.792,16,6.9,16,8.014c0,1.314-0.518,2.387-1.04,3.141h-0.624
			c0.463-1.028,0.778-1.9,0.778-3.167c0-1.457-0.517-2.576-0.752-3.087c-0.007-0.006-0.021-0.033-0.021-0.04H14.973z"/>
	</g>
	<g>
		<path fill="#231F20" d="M1.957,10.285h0.182v0.081h0.005c0.064-0.052,0.185-0.096,0.357-0.096c0.17,0,0.291,0.036,0.339,0.104
			c0.042-0.032,0.145-0.104,0.369-0.104c0.369,0,0.371,0.155,0.371,0.198v0.402H3.376V10.5c0-0.056,0-0.143-0.214-0.143
			c-0.087,0-0.191,0.021-0.24,0.061c-0.039,0.033-0.053,0.068-0.053,0.112v0.341H2.667v-0.382c0-0.056-0.011-0.132-0.21-0.132
			c-0.108,0-0.21,0.027-0.247,0.067c-0.043,0.048-0.051,0.091-0.051,0.142v0.305H1.957V10.285z"/>
		<path fill="#231F20" d="M3.921,10.521c0.011-0.077,0.115-0.169,0.341-0.169c0.146,0,0.261,0.044,0.302,0.094
			c0.023,0.028,0.028,0.054,0.032,0.075H3.921 M4.589,10.682c-0.025,0.034-0.088,0.121-0.316,0.121c-0.18,0-0.348-0.06-0.364-0.2
			h0.894c0.019-0.317-0.44-0.332-0.542-0.332c-0.364,0-0.56,0.133-0.56,0.312c0,0.182,0.201,0.303,0.572,0.303
			c0.295,0,0.463-0.079,0.523-0.189L4.589,10.682z"/>
		<path fill="#231F20" d="M5.069,10.578c0-0.043,0.013-0.226,0.318-0.226c0.247,0,0.327,0.12,0.327,0.234
			c0,0.201-0.253,0.216-0.318,0.216C5.279,10.803,5.069,10.762,5.069,10.578 M5.71,10.871h0.188v-0.811H5.696v0.291H5.691
			c-0.062-0.047-0.175-0.081-0.325-0.081c-0.3,0-0.505,0.116-0.505,0.308c0,0.188,0.23,0.307,0.514,0.307
			c0.044,0,0.221,0,0.33-0.088H5.71V10.871z"/>
		<path fill="#231F20" d="M6.1,10.285h0.203v0.586H6.1V10.285 M6.1,10.061h0.203v0.113H6.1V10.061z"/>
		<path fill="#231F20" d="M7.264,10.613c0,0.049-0.009,0.095-0.09,0.139c-0.095,0.049-0.23,0.055-0.288,0.055
			c-0.183,0-0.24-0.051-0.24-0.093c0-0.079,0.16-0.091,0.284-0.101c0.105-0.008,0.255-0.021,0.334-0.037V10.613 M6.662,10.465
			c0.025-0.049,0.057-0.112,0.311-0.112c0.297,0,0.295,0.083,0.291,0.146c-0.115,0.021-0.334,0.032-0.364,0.035
			c-0.131,0.007-0.47,0.027-0.47,0.183c0,0.098,0.145,0.169,0.408,0.169c0.129,0,0.27-0.015,0.44-0.086
			c0.005,0.015,0.009,0.041,0.042,0.072h0.212c-0.065-0.057-0.065-0.096-0.065-0.246v-0.133c0-0.103,0-0.222-0.463-0.222
			c-0.461,0-0.516,0.13-0.539,0.182L6.662,10.465z"/>
		<path fill="#231F20" d="M8.22,10.408H8.006v0.236c0,0.084,0,0.111,0.088,0.111c0.042,0,0.078-0.006,0.118-0.014l0.009-0.001
			l0.028,0.12c-0.104,0.021-0.217,0.023-0.25,0.023c-0.097,0-0.221-0.016-0.268-0.061c-0.039-0.036-0.043-0.07-0.043-0.16v-0.256
			H7.543v-0.123h0.145v-0.117l0.318-0.092v0.209H8.22V10.408z"/>
		<path fill="#231F20" d="M8.534,10.527C8.532,10.45,8.622,10.39,8.771,10.39c0.048,0,0.229,0.009,0.235,0.138H8.534 M8.988,10.685
			c-0.016,0.026-0.053,0.081-0.201,0.081c-0.18,0-0.256-0.074-0.26-0.144H9.32c0.007-0.173-0.117-0.352-0.567-0.352
			c-0.378,0-0.548,0.152-0.548,0.312c0,0.048,0.018,0.105,0.071,0.162c0.127,0.135,0.403,0.141,0.507,0.141
			c0.397,0,0.497-0.138,0.522-0.174L8.988,10.685z"/>
		<path fill="#231F20" d="M9.695,10.285v0.078h0.006c0.138-0.086,0.281-0.093,0.365-0.093c0.231,0,0.31,0.068,0.34,0.093
			c0.053-0.031,0.168-0.093,0.364-0.093c0.392,0,0.392,0.16,0.392,0.225v0.376h-0.315v-0.336c0-0.068,0-0.146-0.169-0.146
			c-0.083,0-0.168,0.026-0.197,0.065c-0.028,0.031-0.039,0.061-0.039,0.134v0.282h-0.316v-0.322c0-0.099,0.002-0.159-0.164-0.159
			c-0.083,0-0.168,0.022-0.2,0.057c-0.026,0.026-0.042,0.054-0.042,0.14v0.285H9.402v-0.586H9.695z"/>
		<path fill="#231F20" d="M11.628,10.592c0-0.086,0.03-0.128,0.106-0.165c0.058-0.026,0.127-0.033,0.17-0.033
			c0.108,0,0.252,0.038,0.252,0.183c0,0.066-0.03,0.189-0.263,0.189C11.746,10.766,11.628,10.711,11.628,10.592 M11.314,10.285
			v0.809h0.316v-0.291c0.045,0.026,0.154,0.082,0.348,0.082c0.266,0,0.503-0.094,0.503-0.301c0-0.211-0.242-0.313-0.501-0.313
			c-0.07,0-0.244,0.013-0.365,0.101h-0.006v-0.086H11.314z"/>
		<rect x="12.58" y="10.061" fill="#231F20" width="0.316" height="0.811"/>
		<path fill="#231F20" d="M13.315,10.527c-0.002-0.077,0.088-0.138,0.238-0.138c0.048,0,0.228,0.009,0.234,0.138H13.315
			 M13.77,10.685c-0.016,0.026-0.053,0.081-0.201,0.081c-0.179,0-0.255-0.074-0.26-0.144h0.793c0.008-0.173-0.117-0.352-0.566-0.352
			c-0.379,0-0.549,0.152-0.549,0.312c0,0.048,0.019,0.105,0.071,0.162c0.127,0.135,0.403,0.141,0.507,0.141
			c0.396,0,0.496-0.138,0.521-0.174L13.77,10.685z"/>
		<g>
			<polygon fill="#231F20" points="11.733,10.992 11.697,10.992 11.697,10.972 11.795,10.972 11.795,10.992 11.758,10.992 
				11.758,11.087 11.733,11.087 			"/>
			<polygon fill="#231F20" points="11.811,10.972 11.847,10.972 11.869,11.051 11.869,11.051 11.892,10.972 11.93,10.972 
				11.93,11.087 11.906,11.087 11.906,10.996 11.906,10.996 11.881,11.087 11.857,11.087 11.834,10.996 11.833,10.996 
				11.833,11.087 11.811,11.087 			"/>
		</g>
	</g>
</g>
</svg>
